<svg width="47" height="44" viewBox="0 0 47 44" fill="none" xmlns="http://www.w3.org/2000/svg"><path d="M36.932 11.355c-3.404-2.34-7.083-3.032-11.13-3.088v29.277c1.843.26 4.02-.377 5.07 1.893.07.153.68.06 1.042.07 4.032.144 4.116.19 6.85 3.73H8.494c1.818-2.163 3.38-4.288 6.553-3.74 1.05.182 1.627-.442 2.441-1.097.977-.786 2.619-.75 4.14-1.107V7.9L9.799 10.67c1.8 3.944 3.321 7.284 4.851 10.618 1.535 3.34 1.284 5.553-.92 7.911a7.765 7.765 0 0 1-8.544 1.907c-3.279-1.297-6.167-5.66-3.912-9.539 1.647-2.832 2.66-6.036 3.828-8.776-1.688-1.335-3.218-2.548-4.697-3.716C7.64 7.383 14.557 5.76 21.678 4.096V.708h3.91v3.4c7.084 1.637 13.92 3.223 21.325 4.935a6076.195 6076.195 0 0 0-4.916 3.795c1.214 2.66 2.549 5.613 3.902 8.557 1.516 3.284 1.079 5.967-1.353 8.204-2.484 2.28-6.158 2.716-9.046 1.075-3.465-1.968-4.581-5.353-3-8.981 1.456-3.363 2.893-6.744 4.432-10.339ZM14.26 23.824c-1.898-4.163-3.703-8.111-5.805-12.72-3.748 3.832-4.283 8.613-6.669 12.72H14.26Zm18.835 0h12.362c-1.735-3.79-3.316-7.404-5.07-10.93-.283-.567-1.31-.767-2.106-1.19l-5.186 12.12Z" fill="#000"/></svg>