<svg width="37" height="47" viewBox="0 0 37 47" fill="none" xmlns="http://www.w3.org/2000/svg"><path d="M18.584 17.848c3.214-.884 5.362.065 7.023 2.65.535.838 1.781 1.219 2.702 1.805.167-.21.33-.419.497-.628-.939-1.214-1.878-2.432-2.846-3.679 3.13-.944 4.19-.623 6.074 1.66.995 1.21 1.758 2.935 4.093 1.982l-3.19-3.85h3.762v6.073c0 4.05.01 8.102-.005 12.153-.009 3.45-1.748 5.316-5.144 5.218-2.158-.06-3.674.442-5.306 2.14-4.432 4.613-11.874 4.124-16.04-.81-.866-1.023-1.698-1.41-2.95-1.307-.888.075-1.79.084-2.674-.014-2.11-.231-3.874-1.86-3.92-4.106C.534 30.823.613 24.508.627 18.192c0-.168.196-.335.33-.554 2.558.633 2.623 4.963 6.395 4.116-1.074-1.34-2.037-2.544-3.172-3.958 2.6-.348 4.833-.702 6.386 1.93.74 1.252 1.614 2.88 3.823 1.959-.958-1.242-1.898-2.46-2.986-3.875 2.688-.46 4.874-.544 6.39 2.028.735 1.251 1.656 2.66 3.865 1.846a1006.423 1006.423 0 0 0-3.074-3.836Zm7.432 17.594c.033-4.154-3.237-7.488-7.339-7.484-4.079 0-7.502 3.41-7.474 7.437.028 3.944 3.358 7.316 7.32 7.418 4.042.107 7.46-3.26 7.493-7.371ZM29.993.426c-1.21 3.241-1.242 7.204-6.055 6.943.544-5.172 1.818-6.706 6.055-6.943Zm-6.791 2.102c-1.041 3.455-1.2 7.343-6.064 7.162.553-5.237 1.548-6.478 6.064-7.162Zm-13.027 9.385c1.056-3.413 1.349-7.227 6.116-7.176-.893 5.614-1.707 6.609-6.116 7.176ZM3.4 14.16c1.246-3.089 1.12-7.298 6.278-7.195-1.102 3.209-1.079 7.339-6.279 7.194ZM35.062 3.904l-4.804 1.591C30.834 3.71 31.3 2.258 31.969.18c1.163 1.4 2.033 2.451 3.093 3.725ZM.948 15.564C-.73 12.885.07 10.555 3.111 9.114a3049.73 3049.73 0 0 0-2.163 6.45Z" fill="#000"/><path d="M23.523 35.353A7316.188 7316.188 0 0 1 15.86 39.8v-8.846c2.535 1.45 4.925 2.823 7.664 4.4Z" fill="#000"/></svg>